<?xml version="1.0" ?><!DOCTYPE svg  PUBLIC '-//W3C//DTD SVG 1.1//EN'  'http://www.w3.org/Graphics/SVG/1.1/DTD/svg11.dtd' [
	<!ENTITY stroke_color "#000">
	<!ENTITY fill_color "#eee">
]><svg height="55px" viewBox="0 0 55 55" width="55px" xmlns="http://www.w3.org/2000/svg" xmlns:xlink="http://www.w3.org/1999/xlink" stroke-linecap="round" stroke-linejoin="round" stroke-width="3.5" stroke="&stroke_color;" fill="&fill_color;">
 <g>
  <path d="M 5.58279 4.35728 L 2.94924 6.90423 L 4.32326 12.9243 L 3.06374 20.3336 L 3.29274 31.4476 L 1.68971 48.929 L 5.92629 52.7495 L 44.6281 52.1706 L 49.3226 47.0767 L 50.3532 10.3774 L 47.2616 3.89419 L 29.6283 4.00996 L 24.4757 2.85225 L 5.58279 4.35728 Z " stroke-width="2.25" />
  <path d="M 25.2266 2.01094 L 12.2454 2.22406 L 4.88299 3.00553 L 2.36426 5.66962 C 2.36426 5.66962 2.80524 9.21279 3.24494 12.2055 C 3.68463 15.1983 2.25858 18.7954 2.25858 19.2387 C 2.25858 19.6821 2.47418 26.6149 2.36426 27.3908 C 2.25434 28.1667 2.25794 38.9145 1.81824 39.9121 C 1.37854 40.9096 1.51393 48.1451 1.18415 48.8101 C 0.854382 49.4752 2.89267 51.9182 2.89267 51.9182 C 2.89267 51.9182 5.71211 54.1603 6.59151 54.0495 C 7.4709 53.9387 13.173 53.5792 15.1517 53.8009 C 17.1303 54.0225 23.8074 53.5167 25.8959 53.5167 C 27.9845 53.5167 41.538 54.2491 42.4174 54.1383 C 43.2968 54.0275 47.7549 52.3353 48.1946 52.1136 C 48.6343 51.8919 50.2907 48.668 50.2906 48.668 L 50.9423 43.4642 L 51.277 35.3831 L 52.1577 26.8403 L 52.052 14.9762 L 51.9287 9.22174 C 51.9287 9.22174 50.2815 5.44664 50.0617 4.78159 C 49.8418 4.11654 48.1946 2.89897 48.1946 2.89897 C 48.1946 2.89897 42.0462 2.89897 41.1668 2.89897 C 40.2875 2.89897 29.947 3.00553 29.947 3.00553 L 25.2266 2.01094 Z M 25.4027 4.03565 L 29.6828 4.9592 C 29.6828 4.9592 39.0653 4.85263 39.8634 4.85263 C 40.6616 4.85263 46.2572 4.85263 46.2572 4.85263 C 46.2572 4.85263 47.7485 5.97987 47.9481 6.59317 C 48.1476 7.20648 49.6389 10.6959 49.6389 10.6959 L 49.7446 16.0063 L 49.8503 26.9468 L 49.0401 34.8148 L 48.7407 42.2742 L 48.1418 47.0696 C 48.1418 47.0696 46.6562 50.0443 46.2572 50.2487 C 45.8581 50.4532 41.8065 52.0114 41.0083 52.1136 C 40.2102 52.2158 27.9148 51.5453 26.0192 51.5453 C 24.1236 51.5453 18.0572 51.9983 16.2613 51.7939 C 14.4655 51.5895 9.29192 51.9226 8.49377 52.0248 C 7.69561 52.127 5.1472 50.0711 5.1472 50.0711 C 5.1472 50.0711 3.28029 47.8072 3.57959 47.1939 C 3.8789 46.5806 3.74415 39.9262 4.14323 39.0063 C 4.5423 38.0863 4.55425 28.1596 4.65402 27.4441 C 4.75379 26.7286 4.56595 20.3403 4.56595 19.9314 C 4.56595 19.5225 5.8457 16.2086 5.44663 13.4488 C 5.04755 10.6889 4.65402 7.41016 4.65402 7.41016 L 6.94378 4.9592 L 13.6369 4.24877 L 25.4027 4.03565 Z " fill="&stroke_color;" stroke="none" stroke-width="2.25" />
  <path d="M 18.7309 1.2747 L 20.4134 1.2747 L 19.5161 15.1827 L 19.8526 27.7448 L 19.9647 48.6068 L 20.189 53.9905 L 18.6188 53.9905 L 18.058 46.7001 L 18.5066 37.8393 L 18.1701 26.3989 L 17.9458 8.00439 L 18.7309 1.2747 Z " fill="&stroke_color;" stroke="none" stroke-width="2.25" />
  <path d="M 53.0523 19.3327 L 53.0523 21.0151 L 39.1443 20.1178 L 26.5822 20.4543 L 5.72023 20.5665 L 0.336484 20.7908 L 0.336484 19.2205 L 7.62697 18.6597 L 16.4877 19.1084 L 27.9282 18.7719 L 46.3226 18.5476 L 53.0523 19.3327 Z " fill="&stroke_color;" stroke="none" stroke-width="2.25" />
  <g>
   <path d="M 44.9532 21.9119 L 46.941 23.8009 L 46.4225 26.925 L 44.6075 29.3226 L 48.0646 29.1773 L 48.0646 32.4467 L 39.5083 32.6647 L 39.6811 29.25 L 41.5825 28.1602 L 39.854 27.5789 L 38.1254 26.7797 L 39.0761 24.1642 L 41.669 21.9119 L 44.9532 21.9119 Z " stroke-width="2.25" />
   <path d="M 48.6412 29.768 C 48.6412 29.7423 48.6361 29.8235 48.626 30.0116 C 48.6158 30.2938 48.6056 30.7769 48.5954 31.4609 C 48.5751 31.7175 48.5446 32.068 48.5039 32.5126 C 48.5039 32.6837 48.4632 32.9316 48.3818 33.2565 C 48.3513 33.3164 48.0818 33.3677 47.5732 33.4104 C 47.1663 33.4446 46.8103 33.4617 46.5052 33.4617 L 41.3178 33.3848 C 41.2873 33.3848 41.2059 33.372 41.0737 33.3463 C 40.9414 33.3292 40.855 33.3207 40.8143 33.3207 C 40.5193 33.3036 40.2193 33.2865 39.9141 33.2694 C 39.5276 33.2352 39.2326 33.1753 39.0292 33.0898 C 38.8258 33.0043 38.7241 32.7435 38.7241 32.3074 C 38.7241 32.2903 38.7393 32.1322 38.7698 31.8329 C 38.8105 31.5336 38.8359 31.3156 38.8461 31.1788 C 38.8665 30.8881 38.8817 30.5974 38.8919 30.3066 C 38.9224 29.9048 39.0089 29.5884 39.1513 29.3575 C 39.1513 29.2635 39.1919 29.1395 39.2733 28.9856 C 39.3445 28.9172 39.4717 28.8402 39.6547 28.7547 C 39.8378 28.6607 39.9599 28.5923 40.0209 28.5495 C 39.8582 28.4298 39.5378 28.2588 39.0597 28.0365 C 38.6223 27.8313 38.3121 27.656 38.129 27.5106 C 37.8544 27.2883 37.7171 27.0404 37.7171 26.7668 C 37.7171 26.801 37.7425 26.6941 37.7934 26.4461 C 37.8646 26.1212 38.0578 25.5911 38.3731 24.8557 C 38.6986 24.1119 39.2326 23.3637 39.9751 22.6112 C 40.7685 21.7904 41.511 21.2945 42.2027 21.1235 C 42.3247 21.0722 42.5027 21.0123 42.7367 20.9439 C 43.0011 20.9012 43.3266 20.8798 43.7132 20.8798 C 44.537 20.8798 45.2897 21.0722 45.9712 21.4569 C 46.6527 21.8417 47.085 22.3034 47.2681 22.8421 C 47.441 23.3295 47.5274 23.8254 47.5274 24.3299 C 47.5274 24.9968 47.3393 25.7877 46.9629 26.7026 C 46.6273 27.5235 46.2713 28.1434 45.8949 28.5623 C 45.8949 28.6222 45.9509 28.6521 46.0628 28.6521 C 46.1034 28.6521 46.3933 28.6265 46.9324 28.5752 C 47.4817 28.5153 47.7766 28.4854 47.8173 28.4854 C 48.0207 28.4854 48.1631 28.5068 48.2445 28.5495 C 48.3666 28.6094 48.4683 28.8018 48.5497 29.1267 C 48.6107 29.3832 48.6412 29.597 48.6412 29.768 M 47.5885 30.6529 C 47.5885 30.6187 47.5732 30.5375 47.5427 30.4092 C 47.5223 30.2724 47.5071 30.1784 47.4969 30.1271 C 47.4766 29.9732 47.4155 29.8663 47.3138 29.8064 C 47.2223 29.738 47.0545 29.7038 46.8104 29.7038 L 43.347 30.1527 C 43.1537 30.0843 43.0571 30.0031 43.0571 29.909 C 43.0571 29.8748 43.2351 29.7081 43.5911 29.4088 C 44.0081 29.0583 44.2929 28.8018 44.4455 28.6393 C 44.5981 28.4683 44.7862 28.2246 45.01 27.9082 C 45.3863 27.3952 45.6457 26.9249 45.7881 26.4974 C 45.8491 26.3008 45.9153 25.9758 45.9865 25.5227 C 46.0577 25.1208 46.0933 24.8814 46.0933 24.8044 C 46.0933 24.3342 45.9763 23.8853 45.7424 23.4577 C 45.4474 22.9105 45.0303 22.5728 44.4913 22.4445 C 44.2166 22.3761 43.8454 22.3419 43.3775 22.3419 C 43.3165 22.3419 43.1435 22.3676 42.8588 22.4189 C 42.5739 22.4702 42.4214 22.4958 42.401 22.4958 C 41.7602 22.5471 41.0737 22.8977 40.3413 23.5475 C 39.6191 24.1974 39.2377 24.8002 39.197 25.3559 C 39.1869 25.4243 39.1462 25.5654 39.075 25.7792 C 39.0038 25.9929 38.9682 26.1127 38.9682 26.1383 C 38.9682 26.4119 38.9885 26.5744 39.0292 26.6257 C 39.2326 26.8651 39.5174 27.0575 39.8836 27.2028 C 40.1989 27.3225 40.5142 27.4422 40.8295 27.5619 C 40.8601 27.5363 40.8906 27.5064 40.9211 27.4722 C 41.033 26.7625 41.1245 26.3307 41.1957 26.1768 C 41.4195 25.6467 41.6229 25.2833 41.806 25.0866 C 42.0705 24.8215 42.4315 24.689 42.8893 24.689 C 43.347 24.689 43.6826 24.9327 43.8962 25.4201 C 44.0386 25.745 44.1098 26.0998 44.1098 26.4846 C 44.1098 26.9976 44.0132 27.3867 43.82 27.6517 C 43.7386 27.7543 43.4385 27.9595 42.9198 28.2674 C 42.6858 28.4298 42.3349 28.635 41.867 28.883 C 41.511 28.977 41.0126 29.1224 40.3718 29.3191 C 40.2803 29.3533 40.1837 29.5585 40.0819 29.9347 C 39.9802 30.3109 39.9294 30.6187 39.9294 30.8581 L 39.9294 32.0766 C 40.0413 32.1706 40.1633 32.2177 40.2955 32.2177 C 40.3159 32.2177 40.4939 32.2048 40.8295 32.1792 C 41.1652 32.1621 41.389 32.1493 41.5009 32.1407 C 41.7551 32.1407 42.1213 32.145 42.5994 32.1535 C 43.1283 32.1621 43.3622 32.1664 43.3012 32.1664 C 44.1149 32.1664 45.4525 32.0851 47.3138 31.9227 C 47.3952 31.9141 47.4613 31.7346 47.5122 31.384 C 47.563 31.1018 47.5885 30.8581 47.5885 30.6529 " fill="&stroke_color;" stroke="none" stroke-width="2.25" />
  </g>
  <g>
   <path d="M 22.9399 42.4131 L 23.6471 39.5559 L 27.1831 37.8099 L 30.3655 39.2385 L 31.4263 41.8575 L 29.5699 44.2384 L 30.9843 45.5876 L 30.2771 48.5241 L 27.7135 50.1114 L 24.7079 49.8733 L 23.2051 48.3654 L 23.1167 45.667 L 25.4151 45.0321 L 25.7687 43.4448 L 22.9399 42.4131 Z " stroke-width="2.25" />
   <path d="M 31.9219 41.2309 C 31.9219 41.2589 31.9062 41.3243 31.875 41.4271 C 31.8542 41.5205 31.8386 41.5905 31.8282 41.6372 C 31.8074 42.1323 31.693 42.5899 31.4849 43.0102 C 31.3288 43.3185 31.0271 43.7574 30.5798 44.3272 C 30.7462 44.486 30.9491 44.7148 31.1884 45.0137 C 31.5525 45.7236 31.7346 46.298 31.7346 46.737 C 31.7346 47.4188 31.4641 48.0913 30.9231 48.7544 C 30.7879 48.9693 30.6526 49.1841 30.5174 49.3989 C 30.3197 49.7071 30.0856 49.95 29.8151 50.1275 C 29.2533 50.4824 28.5979 50.7392 27.8489 50.898 C 27.3911 50.9914 27.0374 51.0381 26.7877 51.0381 C 25.7786 51.0381 24.9047 50.7673 24.166 50.2255 C 23.3233 49.6091 22.85 48.7731 22.7459 47.7177 C 22.7355 47.6803 22.7095 47.6103 22.6679 47.5075 C 22.6367 47.3955 22.6211 47.3207 22.6211 47.2834 L 22.6211 45.8823 C 22.6211 45.7236 22.7199 45.5181 22.9176 45.2659 C 22.9592 45.2098 23.0736 45.1398 23.2609 45.0557 C 23.4586 44.9623 23.6146 44.9156 23.7291 44.9156 C 23.7707 44.9156 23.8019 44.925 23.8227 44.9436 C 23.8539 44.953 23.8955 44.9577 23.9475 44.9577 C 24.1036 44.9577 24.296 44.9296 24.5249 44.8736 C 24.7954 44.8082 24.9671 44.7382 25.0399 44.6634 C 25.1127 44.5887 25.1491 44.4486 25.1491 44.2431 C 25.1491 44.0377 25.0243 43.8649 24.7746 43.7248 C 24.3064 43.4445 23.6406 43.2951 22.7771 43.2764 C 22.7251 43.2671 22.6367 43.2251 22.5118 43.1503 C 22.387 43.0663 22.3246 42.9962 22.3246 42.9402 C 22.3246 42.5572 22.3766 42.0062 22.4806 41.287 C 22.5118 41.2216 22.5482 41.1375 22.5899 41.0348 C 22.7355 40.2315 23.2609 39.3956 24.166 38.5269 C 24.3117 38.4522 24.5301 38.3215 24.8214 38.1346 C 25.3728 37.7143 26.0282 37.4435 26.7877 37.322 C 26.8189 37.3127 26.8969 37.2894 27.0218 37.252 C 27.1466 37.2146 27.2298 37.196 27.2715 37.196 C 27.9373 37.196 28.5927 37.3501 29.2377 37.6583 C 29.477 37.7517 29.8255 37.9198 30.2833 38.1627 C 31.3757 38.9659 31.9219 39.9887 31.9219 41.2309 M 30.533 41.7353 C 30.533 40.9414 30.2105 40.2595 29.5655 39.6898 C 28.9204 39.1107 28.1298 38.8212 27.1934 38.8211 C 26.9229 38.8212 26.7565 38.8258 26.6941 38.8352 C 26.642 38.8445 26.5744 38.8679 26.4912 38.9052 C 26.408 38.9332 26.3507 38.9472 26.3195 38.9472 C 25.8098 38.9379 25.2896 39.2368 24.759 39.8439 C 24.3637 40.2829 24.0204 40.82 23.7291 41.4551 C 23.6666 41.5765 23.599 41.9128 23.5262 42.4638 C 23.9527 42.5853 24.5353 42.758 25.274 42.9822 C 25.3364 42.758 25.404 42.5386 25.4769 42.3237 C 25.5601 42.0715 25.6589 41.8754 25.7734 41.7353 C 26.0959 41.343 26.4808 41.1469 26.9281 41.1469 C 27.3235 41.1469 27.6564 41.2963 27.9269 41.5952 C 28.1662 41.8754 28.2858 42.179 28.2858 42.5059 C 28.2858 43.552 27.9269 44.1637 27.209 44.3412 C 26.9906 44.3599 26.7773 44.3786 26.5692 44.3972 C 26.3195 44.444 26.2103 44.5981 26.2415 44.8596 C 26.3351 44.9343 26.4496 44.9904 26.5848 45.0277 C 26.7617 45.0651 27.001 45.1305 27.3027 45.2239 C 27.542 45.3266 27.75 45.5181 27.9269 45.7983 C 28.0725 46.0411 28.1454 46.2373 28.1454 46.3867 C 28.1454 46.723 27.9893 47.0265 27.6772 47.2974 C 27.3755 47.5589 27.0322 47.6897 26.6473 47.6897 C 26.2415 47.6897 25.9034 47.5215 25.6329 47.1853 C 25.4664 46.9798 25.3832 46.737 25.3832 46.4568 C 25.3832 46.3353 25.3988 46.2139 25.43 46.0925 C 25.4612 45.9804 25.4404 45.901 25.3676 45.8543 C 25.2948 45.8543 25.1751 45.8496 25.0087 45.8403 C 24.8422 45.8216 24.7434 45.8123 24.7122 45.8123 C 24.4521 45.8123 24.2336 45.845 24.0568 45.9104 C 23.9527 45.9571 23.8539 46.1205 23.7603 46.4007 C 23.6666 46.6716 23.6198 46.8817 23.6198 47.0312 C 23.6198 47.3674 23.7707 47.755 24.0724 48.194 C 24.1764 48.3435 24.3273 48.5303 24.5249 48.7544 C 24.9931 49.1 25.6537 49.2728 26.5068 49.2728 C 26.5172 49.2728 26.7409 49.2495 27.1778 49.2028 C 27.5524 49.1654 27.7604 49.1467 27.802 49.1467 C 28.0413 49.1 28.2806 49.0347 28.5199 48.9506 C 29.1025 48.7358 29.4666 48.5256 29.6123 48.3201 C 30.0388 47.713 30.2521 47.1339 30.2521 46.5829 C 30.2521 45.873 30.0856 45.3453 29.7527 44.9997 C 29.6591 44.9063 29.5082 44.7849 29.3002 44.6354 C 29.1337 44.5233 29.0505 44.4486 29.0505 44.4113 C 29.0505 44.3739 29.0921 44.3085 29.1753 44.2151 C 29.2585 44.1217 29.3054 44.0657 29.3158 44.047 C 29.5654 43.7201 29.8099 43.3978 30.0492 43.0803 C 30.3717 42.632 30.533 42.1836 30.533 41.7353 " fill="&stroke_color;" stroke="none" stroke-width="2.25" />
  </g>
  <path d="M 34.6579 0.826059 L 36.3403 0.826059 L 35.443 14.7341 L 35.7795 27.2961 L 35.8916 48.1582 L 36.116 53.5419 L 34.5457 53.5419 L 33.9849 46.2514 L 34.4335 37.3907 L 34.0971 25.9502 L 33.8727 7.55574 L 34.6579 0.826059 Z " fill="&stroke_color;" stroke="none" stroke-width="2.25" />
  <path d="M 53.2766 35.7082 L 53.2766 37.3907 L 39.3686 36.4934 L 26.8066 36.8299 L 5.94455 36.942 L 0.560806 37.1663 L 0.560806 35.5961 L 7.8513 35.0353 L 16.712 35.4839 L 28.1525 35.1474 L 46.547 34.9231 L 53.2766 35.7082 Z " fill="&stroke_color;" stroke="none" stroke-width="2.25" />
  <g>
   <path d="M 12.2007 5.84935 L 9.49061 7.3273 L 8.63887 8.59412 L 9.41318 9.72018 L 10.5746 9.86094 L 10.1101 13.2391 L 8.32915 13.6614 L 8.09686 16.4765 L 14.5236 15.9135 L 15.2979 13.591 L 13.1299 13.028 L 14.5236 5.99011 L 12.2007 5.84935 Z " stroke-width="2.25" />
   <path d="M 15.9158 13.4746 C 15.9158 13.7562 15.8019 14.2863 15.5741 15.0649 C 15.3007 16.0174 15.0273 16.4936 14.754 16.4936 C 14.7266 16.4936 14.6628 16.4853 14.5626 16.4688 C 14.4624 16.4605 14.3986 16.4564 14.3712 16.4564 C 14.3348 16.4564 14.148 16.4729 13.8108 16.5061 C 13.4736 16.5475 13.2868 16.5682 13.2504 16.5682 C 13.223 16.5682 13.1593 16.5599 13.059 16.5433 C 12.9588 16.535 12.8859 16.5309 12.8403 16.5309 C 12.5852 16.5309 12.2298 16.5557 11.7741 16.6054 C 11.1727 16.68 10.7991 16.7255 10.6533 16.7421 C 10.0427 16.8084 9.19981 16.8995 8.12451 17.0154 C 7.91492 17.0403 7.73722 17.0858 7.59142 17.1521 C 7.47296 17.1107 7.41373 17.0361 7.41373 16.9285 C 7.41373 16.9616 7.45018 16.5309 7.52308 15.6364 C 7.59598 14.6673 7.6461 13.8846 7.67344 13.2882 C 7.68255 13.2634 7.73267 13.2261 7.8238 13.1764 C 8.03339 13.1267 8.23842 13.0646 8.4389 12.9901 C 8.57559 12.9735 8.78062 12.9404 9.054 12.8907 C 9.19981 12.8492 9.41395 12.7913 9.69645 12.7167 C 9.74201 12.6836 9.7739 12.6505 9.79213 12.6173 C 10.0473 11.3252 10.1749 10.6129 10.1749 10.4804 C 10.1749 10.4555 10.143 10.4141 10.0792 10.3562 C 9.82402 10.5384 9.44585 10.7951 8.94465 11.1264 C 8.91731 11.1264 8.87175 11.085 8.80796 11.0022 C 8.81707 10.7951 8.72595 10.4638 8.53458 10.0083 C 8.47991 9.86748 8.12451 9.25042 7.4684 8.1571 C 7.45929 8.14882 7.45473 8.08256 7.45473 7.95831 C 7.70077 7.8258 8.31132 7.45308 9.28638 6.84015 C 9.50508 6.66622 9.83313 6.42602 10.2705 6.11955 C 10.4892 5.97047 10.8264 5.76341 11.2821 5.49835 C 11.3641 5.44038 11.4871 5.3617 11.6511 5.26229 C 11.6784 5.25402 11.7559 5.24988 11.8835 5.24987 C 11.9108 5.24988 12.1523 5.28301 12.6079 5.34926 C 13.0636 5.40725 13.3096 5.43624 13.3461 5.43623 C 13.3734 5.43624 13.4235 5.4321 13.4964 5.42381 C 13.5693 5.40725 13.624 5.39897 13.6605 5.39896 C 13.9156 5.39897 14.1753 5.42382 14.4396 5.4735 C 14.9043 5.55634 15.1367 5.69715 15.1367 5.89592 C 15.1367 5.92078 15.1185 5.97462 15.082 6.05743 C 15.0456 6.13199 15.0273 6.18996 15.0274 6.23137 C 14.9909 6.75319 14.9408 7.14662 14.877 7.41165 C 14.7767 8.0163 14.6036 8.96467 14.3576 10.2568 C 14.1844 10.8283 13.9703 11.6441 13.7151 12.7043 C 13.7607 12.7788 13.8609 12.8285 14.0158 12.8534 C 14.1252 12.87 14.2391 12.8824 14.3576 12.8907 C 14.6218 12.9238 14.8907 12.9569 15.164 12.9901 C 15.6652 13.0894 15.9158 13.251 15.9158 13.4746 M 14.5626 14.1331 C 14.5353 14.1082 14.4943 14.0709 14.4396 14.0212 C 14.1844 13.9716 13.5329 13.8804 12.4849 13.7479 C 12.4394 13.6817 12.4166 13.6154 12.4166 13.5491 C 12.4166 13.6402 12.6125 12.7167 13.0043 10.7786 C 13.1137 10.1408 13.2595 9.30426 13.4418 8.26891 C 13.4691 8.11983 13.5374 7.8465 13.6468 7.44893 C 13.747 7.09278 13.7971 6.90228 13.7971 6.87742 C 13.7971 6.81117 13.7789 6.76147 13.7425 6.72833 L 13.0453 6.72833 C 12.4075 6.72834 11.7832 6.76975 11.1727 6.85257 C 11.0633 6.86915 10.9221 6.94783 10.749 7.08863 C 10.5849 7.22116 10.3662 7.41994 10.0928 7.68498 C 9.74656 8.0163 9.57342 8.22337 9.57343 8.30619 C 9.57342 8.36417 9.64177 8.55053 9.77846 8.86527 C 9.93337 9.21315 10.061 9.38708 10.1612 9.38708 C 10.1885 9.38708 10.3161 9.33325 10.5439 9.22556 C 10.7717 9.1179 10.8993 9.06406 10.9267 9.06405 C 11.0087 9.06406 11.0725 9.09305 11.118 9.15102 C 11.0998 9.55688 11.0406 10.087 10.9403 10.7413 C 10.7672 11.9423 10.6715 12.6298 10.6533 12.8037 C 10.6259 13.0273 10.5713 13.3131 10.4892 13.6609 C 10.471 13.7438 10.4209 13.7852 10.3389 13.7852 C 10.3024 13.7852 10.2842 13.781 10.2842 13.7728 L 10.2842 13.7728 C 10.2842 13.7562 10.2705 13.7479 10.2432 13.7479 C 10.2068 13.7479 9.67366 13.839 8.64394 14.0212 C 8.50724 14.0461 8.4389 14.0875 8.4389 14.1455 L 8.4389 15.2637 L 11.5554 15.2637 L 13.9202 15.5246 C 14.066 15.5246 14.2163 15.3009 14.3712 14.8537 C 14.4715 14.5472 14.5353 14.307 14.5626 14.1331 " fill="&stroke_color;" stroke="none" stroke-width="2.25" />
  </g>
 </g>
</svg>